M48
;GenerationSoftware,Autodesk,EAGLE,9.5.2*%
;CreationDate,2020-02-11T10:44:50Z*%
FMAT,2
ICI,OFF
METRIC,TZ,000.000
T9C0.457
T8C0.508
T7C0.600
T6C0.813
T5C1.016
T4C1.118
T3C2.997
T2C3.200
T1C3.302
%
G90
M71
T1
X78998Y19814
T2
X14275Y49770
X89745Y63105
X71013Y4670
T3
X76680Y8177
X82680Y8177
X79680Y12877
T4
X60725Y64470
X50565Y64470
X76458Y34800
X78998Y34800
X81538Y34800
X87617Y25640
X64980Y62105
X64980Y59565
X64980Y57025
X87617Y15480
T5
X49740Y45960
X52280Y45960
X57995Y45960
X60535Y45960
X63075Y45960
X65615Y45960
X68155Y45960
X70695Y45960
X31960Y45960
X8465Y30085
X8465Y32625
X8465Y35165
X4830Y62565
X12450Y62565
X26956Y62479
X20454Y62479
X65615Y6590
X63075Y6590
X40025Y66645
X42565Y66645
X45105Y66645
X47645Y66645
X8465Y27545
X26880Y45960
X29420Y45960
X26956Y67001
X20454Y67001
X8465Y46880
X8465Y49420
X34500Y45960
X8465Y51960
X24340Y45960
X21800Y45960
X19260Y45960
X15412Y10324
X15412Y16826
X19933Y10324
X19933Y16826
X32913Y11670
X30372Y11670
X30372Y9130
X27832Y11670
X27832Y9130
X15767Y25957
X15767Y28497
X15767Y31037
X15767Y33578
X15767Y36118
X37040Y45960
X39580Y45960
X42120Y45960
X44660Y45960
X47200Y45960
X32913Y9130
T6
X41485Y52675
X18625Y54580
X28785Y54580
X43390Y17385
X43390Y7225
X28785Y57120
X18625Y57120
X28785Y59660
X18625Y59660
X85300Y49770
X75140Y49770
X75140Y56120
X75140Y66280
X84030Y56120
X78950Y56120
X81490Y61200
X56725Y5685
X56725Y8225
X56725Y10765
X39707Y34530
X44533Y34530
X80855Y39610
X80855Y42150
X49105Y60295
X61170Y29450
X58630Y29450
X56090Y29450
X53550Y29450
X51010Y29450
X48470Y29450
X45930Y29450
X43390Y29450
X40850Y29450
X38310Y29450
X35770Y29450
X33230Y29450
X30690Y29450
X30690Y21830
X33230Y21830
X35770Y21830
X38310Y21830
X40850Y21830
X43390Y21830
X45930Y21830
X48470Y21830
X51010Y21830
X53550Y21830
X56090Y21830
X58630Y21830
X61170Y21830
X63710Y21830
X30690Y65010
X33230Y65010
X46565Y55215
X90475Y31672
X87935Y31672
X75458Y39610
X75458Y42150
X43390Y39293
X45930Y39293
X40850Y39293
X38310Y39293
X48517Y18338
X45977Y18338
X19895Y36118
X19895Y33578
X49105Y55215
X56725Y55215
X56725Y60295
X46565Y60295
X87205Y39610
X63710Y29450
X87205Y37070
X31865Y52945
X34405Y52945
X47835Y6590
X49422Y35165
X49422Y32625
X73553Y35800
X63392Y35800
X47835Y4050
X41120Y58025
X43660Y58025
X38580Y58025
X85300Y45960
X40485Y6590
X40485Y4050
X71330Y63422
X71330Y65963
X75140Y45960
X59900Y54215
X70060Y54215
X59900Y51675
X70060Y51675
X51645Y52675
T7
X48470Y26640
X65933Y13352
X65933Y30402
X38628Y11035
X38628Y18338
X41485Y17068
X25610Y22465
X24975Y7327
X19895Y43420
X50534Y43579
X21403Y42071
X54185Y42150
X45993Y9130
X44977Y26799
T8
X41485Y12940
T9
X81000Y48000
X16000Y44000
X27000Y25000
X27000Y40000
X50000Y25000
X40000Y51000
X47000Y51000
M30