G04 EAGLE Gerber RS-274X export*
G75*
%MOMM*%
%FSLAX34Y34*%
%LPD*%
%IN*%
%IPPOS*%
%AMOC8*
5,1,8,0,0,1.08239X$1,22.5*%
G01*
%ADD10C,0.254000*%


D10*
X0Y0D02*
X940000Y0D01*
X940000Y700000D01*
X0Y700000D01*
X0Y0D01*
X773465Y198680D02*
X773536Y199759D01*
X773677Y200831D01*
X773888Y201891D01*
X774167Y202935D01*
X774515Y203959D01*
X774929Y204957D01*
X775407Y205927D01*
X775947Y206863D01*
X776548Y207762D01*
X777206Y208619D01*
X777919Y209432D01*
X778683Y210197D01*
X779496Y210909D01*
X780353Y211567D01*
X781252Y212168D01*
X782188Y212708D01*
X783158Y213186D01*
X784156Y213600D01*
X785180Y213948D01*
X786224Y214227D01*
X787284Y214438D01*
X788356Y214579D01*
X789435Y214650D01*
X790515Y214650D01*
X791594Y214579D01*
X792666Y214438D01*
X793726Y214227D01*
X794770Y213948D01*
X795794Y213600D01*
X796792Y213186D01*
X797762Y212708D01*
X798698Y212168D01*
X799597Y211567D01*
X800454Y210909D01*
X801267Y210197D01*
X802032Y209432D01*
X802744Y208619D01*
X803402Y207762D01*
X804003Y206863D01*
X804543Y205927D01*
X805021Y204957D01*
X805435Y203959D01*
X805783Y202935D01*
X806062Y201891D01*
X806273Y200831D01*
X806414Y199759D01*
X806485Y198680D01*
X806485Y197600D01*
X806414Y196521D01*
X806273Y195449D01*
X806062Y194389D01*
X805783Y193345D01*
X805435Y192321D01*
X805021Y191323D01*
X804543Y190353D01*
X804003Y189417D01*
X803402Y188518D01*
X802744Y187661D01*
X802032Y186848D01*
X801267Y186084D01*
X800454Y185371D01*
X799597Y184713D01*
X798698Y184112D01*
X797762Y183572D01*
X796792Y183094D01*
X795794Y182680D01*
X794770Y182332D01*
X793726Y182053D01*
X792666Y181842D01*
X791594Y181701D01*
X790515Y181630D01*
X789435Y181630D01*
X788356Y181701D01*
X787284Y181842D01*
X786224Y182053D01*
X785180Y182332D01*
X784156Y182680D01*
X783158Y183094D01*
X782188Y183572D01*
X781252Y184112D01*
X780353Y184713D01*
X779496Y185371D01*
X778683Y186084D01*
X777919Y186848D01*
X777206Y187661D01*
X776548Y188518D01*
X775947Y189417D01*
X775407Y190353D01*
X774929Y191323D01*
X774515Y192321D01*
X774167Y193345D01*
X773888Y194389D01*
X773677Y195449D01*
X773536Y196521D01*
X773465Y197600D01*
X773465Y198680D01*
M02*
